<svg width="45" height="1151" viewBox="0 0 45 1151" fill="none" xmlns="http://www.w3.org/2000/svg">
<path d="M21.5 1C22.3 98.4703 21.8333 131.955 21.5 136.514L1.5 157.649L21.5 180.027L41.5 157.649H21.5V237.216V277V320.514C11.1 331.454 3.83333 339.162 1.5 341.649L21.5 362.784L41.5 341.649H21.5V490.838L1.5 513.216C8.16667 521.09 21.5 536.589 21.5 535.595C21.5 534.6 34.8333 520.261 41.5 513.216H21.5V663.649L10.5 679.811L1.5 691L21.5 709.649L41.5 691H21.5V838.946L1.5 868.784L21.5 887.432L41.5 868.784H21.5V1017.97L1.5 1044.08L21.5 1066.46L41.5 1044.08H21.5V1151" stroke="black" stroke-width="2"/>
</svg>
